<svg width="47" height="47" viewBox="0 0 47 47" fill="none" xmlns="http://www.w3.org/2000/svg">
<g clip-path="url(#clip0)">
<path d="M46.8032 28.6921L38.8847 15.4936L45.9912 13.5196C46.724 13.3161 47.1529 12.5571 46.9494 11.8244C46.7458 11.0917 45.9867 10.6626 45.2541 10.8662L36.4204 13.32C36.4198 13.3201 36.4192 13.3203 36.4185 13.3205L24.8769 16.5264V1.37782C24.8769 0.617378 24.2604 0.000869751 23.4999 0.000869751C22.7395 0.000869751 22.123 0.617378 22.123 1.37782V17.2914L9.87333 20.6939C9.87269 20.6941 9.87204 20.6943 9.8714 20.6944L1.00869 23.1562C0.275875 23.3597 -0.153 24.1187 0.0504217 24.8514C0.219787 25.4608 0.77323 25.8601 1.37634 25.8601C1.49833 25.8601 1.62244 25.8438 1.74563 25.8096L7.27052 24.2749L0.196654 36.0661C0.0683221 36.2801 0.000392438 36.525 0.000392438 36.7745C0.000392438 42.413 4.58776 47.0001 10.2263 47.0001C15.865 47.0001 20.4523 42.413 20.4523 36.7745C20.4523 36.525 20.3844 36.2801 20.256 36.0661L12.3374 22.8676L33.8176 16.901L26.7438 28.6921C26.6154 28.9061 26.5475 29.151 26.5475 29.4005C26.5475 35.039 31.1349 39.6262 36.7734 39.6262C39.5048 39.6262 42.0727 38.5625 44.0043 36.631C45.9358 34.6995 46.9995 32.1317 46.9993 29.4003C46.9995 29.1509 46.9316 28.906 46.8032 28.6921ZM10.2263 44.2463C6.57672 44.2463 3.53127 41.6156 2.88291 38.1514H17.5697C16.9214 41.6156 13.8759 44.2463 10.2263 44.2463ZM16.6436 35.3975H3.80914L10.2263 24.7013L16.6436 35.3975ZM36.7734 17.3273L43.1908 28.0234H30.3561L36.7734 17.3273ZM36.7736 36.8724C33.124 36.8724 30.0785 34.2417 29.43 30.7774H44.1171C43.4686 34.2417 40.4232 36.8724 36.7736 36.8724Z" fill="#504E4E"/>
</g>
<defs>
<clipPath id="clip0">
<rect width="47" height="47" fill="white"/>
</clipPath>
</defs>
</svg>
