<svg width="46" height="46" viewBox="0 0 46 46" fill="none" xmlns="http://www.w3.org/2000/svg">
<g clip-path="url(#clip0)">
<path d="M42.2845 6.5339C39.8757 4.12517 36.6869 2.80866 33.2834 2.80866C29.88 2.80866 26.6814 4.13492 24.2726 6.54365L23.0146 7.80165L21.7371 6.52415C19.3284 4.11542 16.12 2.7794 12.7166 2.7794C9.32291 2.7794 6.12427 4.10567 3.72529 6.50464C1.31657 8.91337 -0.00969854 12.112 5.33989e-05 15.5154C5.33989e-05 18.9189 1.33607 22.1077 3.7448 24.5165L22.0589 42.8306C22.3125 43.0842 22.6538 43.2207 22.9854 43.2207C23.3169 43.2207 23.6583 43.0939 23.9118 42.8404L42.265 24.5555C44.6737 22.1468 46 18.9481 46 15.5447C46.0097 12.1413 44.6932 8.94263 42.2845 6.5339ZM40.4121 22.6929L22.9854 40.0513L5.59767 22.6636C3.68629 20.7522 2.63308 18.2167 2.63308 15.5154C2.63308 12.8141 3.67653 10.2786 5.58792 8.37702C7.48954 6.47539 10.025 5.42218 12.7166 5.42218C15.4179 5.42218 17.9631 6.47539 19.8745 8.38677L22.0784 10.5907C22.5953 11.1076 23.4242 11.1076 23.9411 10.5907L26.1255 8.40627C28.0369 6.49489 30.5821 5.44168 33.2737 5.44168C35.9652 5.44168 38.5007 6.49489 40.4121 8.39652C42.3235 10.3079 43.3669 12.8434 43.3669 15.5447C43.3767 18.246 42.3235 20.7815 40.4121 22.6929Z" fill="#504E4E"/>
</g>
<defs>
<clipPath id="clip0">
<rect width="46" height="46" fill="white"/>
</clipPath>
</defs>
</svg>
