<svg width="39" height="37" viewBox="0 0 39 37" fill="none" xmlns="http://www.w3.org/2000/svg">
<g clip-path="url(#clip0)">
<path d="M27.543 23.2571H25.8428L25.2054 22.6229C27.3306 20.2971 28.6057 17.1257 28.6057 13.7429C28.6056 6.13143 22.4425 0 14.7918 0C7.14101 0 0.977905 6.13143 0.977905 13.7429C0.977905 21.3543 7.14101 27.4857 14.7918 27.4857C18.1921 27.4857 21.3799 26.2171 23.7176 24.1029L24.3552 24.7371V26.4285L34.9812 37L38.1691 33.8286L27.543 23.2571ZM14.7918 23.2571C9.47874 23.2571 5.22832 19.0286 5.22832 13.7429C5.22832 8.45714 9.47874 4.22857 14.7918 4.22857C20.1048 4.22857 24.3552 8.45714 24.3552 13.7429C24.3552 19.0286 20.1048 23.2571 14.7918 23.2571Z" fill="white"/>
</g>
<defs>
<clipPath id="clip0">
<rect width="37.1911" height="37" fill="white" transform="translate(0.977905)"/>
</clipPath>
</defs>
</svg>
