<svg width="46" height="46" viewBox="0 0 46 46" fill="none" xmlns="http://www.w3.org/2000/svg">
<path d="M41.4 39.7632L38.766 10.1031C38.7096 9.44458 38.1546 8.94601 37.5055 8.94601H32.0871C32.0118 3.99796 27.9669 0 23 0C18.0331 0 13.9881 3.99796 13.9129 8.94601H8.49446C7.83598 8.94601 7.29037 9.44458 7.23393 10.1031L4.59998 39.7632C4.59998 39.8008 4.59058 39.8384 4.59058 39.8761C4.59058 43.2532 7.68546 46 11.4953 46H34.5047C38.3145 46 41.4094 43.2532 41.4094 39.8761C41.4094 39.8384 41.4094 39.8008 41.4 39.7632ZM23 2.53988C26.5652 2.53988 29.472 5.39959 29.5472 8.94601H16.4527C16.528 5.39959 19.4347 2.53988 23 2.53988ZM34.5047 43.4601H11.4953C9.10591 43.4601 7.16808 41.8798 7.13045 39.9325L9.65152 11.4953H13.9035V15.3521C13.9035 16.0577 14.4679 16.6221 15.1734 16.6221C15.8789 16.6221 16.4433 16.0577 16.4433 15.3521V11.4953H29.5472V15.3521C29.5472 16.0577 30.1116 16.6221 30.8172 16.6221C31.5227 16.6221 32.0871 16.0577 32.0871 15.3521V11.4953H36.339L38.8695 39.9325C38.8319 41.8798 36.8847 43.4601 34.5047 43.4601Z" fill="#504E4E"/>
</svg>
