<svg width="33" height="33" viewBox="0 0 33 33" fill="none" xmlns="http://www.w3.org/2000/svg">
<g clip-path="url(#clip0)">
<path d="M29.8879 9.90472C30.6578 9.22745 31.1451 8.2361 31.1451 7.1324C31.1451 5.0962 29.4885 3.43956 27.4523 3.43956C26.0972 3.43956 24.9109 4.17374 24.2685 5.26461L18.6255 3.92322V2.66541C18.6255 1.47161 17.6577 0.503784 16.4639 0.503784C15.2701 0.503784 14.3023 1.47161 14.3023 2.66541V3.92631L8.72856 5.25997C8.08545 4.17168 6.90067 3.43962 5.54754 3.43962C3.51128 3.43962 1.8547 5.09626 1.8547 7.13247C1.8547 8.23603 2.34197 9.22745 3.11193 9.90479C0.326584 16.074 -0.000193751 16.563 -3.91133e-07 17.0692C0.00122422 20.1153 2.49788 22.5886 5.54754 22.5886C8.59721 22.5886 11.0794 20.1153 11.0951 17.0692C11.1048 16.7193 10.7795 16.0991 7.98316 9.90459C8.69924 9.27469 9.17013 8.37293 9.23252 7.36192L14.3023 6.14885V28.2449H11.4921C10.8952 28.2449 10.4113 28.7288 10.4113 29.3257C10.4113 29.7866 10.7003 30.1791 11.1066 30.3345H9.94293C9.34602 30.3345 8.86211 30.8184 8.86211 31.4153C8.86211 32.0122 9.34602 32.4961 9.94293 32.4961H22.9849C23.5818 32.4961 24.0657 32.0122 24.0657 31.4153C24.0657 30.8184 23.5818 30.3345 22.9849 30.3345H21.8212C22.2274 30.1791 22.5165 29.7866 22.5165 29.3257C22.5165 28.7288 22.0326 28.2449 21.4357 28.2449H18.6255V6.14517L23.7677 7.36753C23.8315 8.37628 24.3019 9.27598 25.0166 9.90472C22.3019 15.919 21.8953 16.731 21.9047 17.0693C21.9204 20.1154 24.4026 22.5888 27.4523 22.5888C30.5019 22.5888 32.9841 20.1154 32.9998 17.0693C33.01 16.7022 32.7126 16.1584 29.8879 9.90472ZM8.34197 15.9596H2.75305L5.08181 10.7948C5.2345 10.8142 5.3897 10.8252 5.54748 10.8252C5.70526 10.8252 5.86046 10.8142 6.01315 10.7948L8.34197 15.9596ZM24.6578 15.9596L26.9865 10.7948C27.1392 10.8142 27.2944 10.8252 27.4522 10.8252C27.61 10.8252 27.7652 10.8142 27.9179 10.7948L30.2466 15.9596H24.6578Z" fill="#847D7D"/>
</g>
<defs>
<clipPath id="clip0">
<rect width="33" height="33" fill="white" transform="matrix(1 0 0 -1 0 33)"/>
</clipPath>
</defs>
</svg>
