<svg width="35" height="33" viewBox="0 0 35 33" fill="none" xmlns="http://www.w3.org/2000/svg">
<path d="M29.8879 10.4009C30.6578 9.72367 31.1451 8.73231 31.1451 7.62862C31.1451 5.59241 29.4885 3.93578 27.4523 3.93578C26.0972 3.93578 24.9109 4.66996 24.2685 5.76083L18.6255 4.41943V3.16163C18.6255 1.96783 17.6577 1 16.4639 1C15.2701 1 14.3023 1.96783 14.3023 3.16163V4.42253L8.72856 5.75619C8.08545 4.6679 6.90067 3.93584 5.54754 3.93584C3.51128 3.93584 1.8547 5.59248 1.8547 7.62868C1.8547 8.73225 2.34197 9.72367 3.11193 10.401C0.326584 16.5703 -0.000193274 17.0592 8.57046e-08 17.5654C0.0012247 20.6115 2.49788 23.0849 5.54754 23.0849C8.59721 23.0849 11.0794 20.6115 11.0951 17.5654C11.1048 17.2155 10.7795 16.5953 7.98316 10.4008C8.69924 9.77091 9.17013 8.86915 9.23252 7.85813L14.3023 6.64506V28.7411H11.4921C10.8952 28.7411 10.4113 29.2251 10.4113 29.822C10.4113 30.2829 10.7003 30.6753 11.1066 30.8307H9.94293C9.34603 30.8307 8.86211 31.3146 8.86211 31.9115C8.86211 32.5084 9.34603 32.9923 9.94293 32.9923H22.9849C23.5818 32.9923 24.0657 32.5084 24.0657 31.9115C24.0657 31.3146 23.5818 30.8307 22.9849 30.8307H21.8212C22.2274 30.6753 22.5165 30.2829 22.5165 29.822C22.5165 29.2251 22.0326 28.7411 21.4357 28.7411H18.6255V6.64139L23.7677 7.86374C23.8315 8.8725 24.3019 9.7722 25.0166 10.4009C22.3019 16.4152 21.8953 17.2272 21.9047 17.5655C21.9204 20.6116 24.4026 23.085 27.4523 23.085C30.5019 23.085 32.9841 20.6116 32.9998 17.5655C33.01 17.1984 32.7126 16.6546 29.8879 10.4009ZM8.34197 16.4558H2.75305L5.08181 11.291C5.2345 11.3104 5.3897 11.3215 5.54748 11.3215C5.70526 11.3215 5.86046 11.3104 6.01315 11.291L8.34197 16.4558ZM24.6578 16.4558L26.9865 11.291C27.1392 11.3104 27.2944 11.3215 27.4522 11.3215C27.61 11.3215 27.7652 11.3104 27.9179 11.291L30.2466 16.4558H24.6578Z" fill="#847D7D"/>
<ellipse cx="29.5" cy="5.50003" rx="4.85294" ry="4.85294" fill="#0D851F"/>
<path d="M31.5625 3.48157L28.9005 6.19306L27.5365 4.82356L26.805 5.55507L28.9555 7.70007L32.4095 4.35058L31.5625 3.48157Z" fill="white"/>
<path d="M29.5 0C26.4624 0 24 2.46244 24 5.49999C24 8.53753 26.4624 11 29.5 11C32.5375 11 35 8.53753 35 5.49999C35 2.46244 32.5376 0 29.5 0ZM29.5 10.0045C27.0122 10.0045 24.9955 7.98775 24.9955 5.49999C24.9955 3.01223 27.0122 0.995491 29.5 0.995491C31.9865 0.998507 34.0014 3.01346 34.0045 5.49999C34.0045 7.98777 31.9878 10.0045 29.5 10.0045Z" fill="#0D851F"/>
</svg>
