<svg width="39" height="39" viewBox="0 0 39 39" fill="none" xmlns="http://www.w3.org/2000/svg">
<path d="M13.8136 38.5801C16.4242 38.5801 18.5406 36.4638 18.5406 33.8531C18.5406 31.2425 16.4242 29.1262 13.8136 29.1262C11.203 29.1262 9.08672 31.2425 9.08672 33.8531C9.08672 36.4638 11.203 38.5801 13.8136 38.5801Z" fill="#0D851F"/>
<path d="M28.9581 29.0804C26.3348 28.8223 23.999 30.7395 23.7408 33.3629C23.4827 35.9862 25.4 38.322 28.0233 38.5802C28.3341 38.6107 28.6473 38.6107 28.9581 38.5802C31.5815 38.322 33.4987 35.9862 33.2406 33.3629C33.0176 31.0965 31.2244 29.3034 28.9581 29.0804Z" fill="#0D851F"/>
<path d="M38.6874 11.0905C38.4525 10.7389 38.0546 10.5313 37.6318 10.5398H32.4001V10.448C32.4004 4.89727 27.901 0.397209 22.3503 0.396851C16.7996 0.396492 12.2995 4.89593 12.2992 10.4467C12.2992 10.4471 12.2992 10.4476 12.2992 10.448V10.5398H8.39832L7.06744 4.482C6.91964 3.86577 6.37027 3.43006 5.73656 3.42647H0V6.18002H4.63514L8.90314 25.7761C9.01581 26.4204 9.58005 26.8873 10.234 26.8775H34.2358C34.8695 26.8739 35.4188 26.4382 35.5667 25.822L38.9627 12.2378C39.0623 11.8333 38.9597 11.4057 38.6874 11.0905ZM22.3496 17.7449C18.3197 17.7449 15.0527 14.478 15.0527 10.448C15.0527 6.41809 18.3197 3.15112 22.3496 3.15112C26.3796 3.15112 29.6465 6.41809 29.6465 10.448C29.6215 14.4676 26.3692 17.7198 22.3496 17.7449Z" fill="#0D851F"/>
<path d="M21.2482 10.5857L18.7241 8.01574L16.7507 9.94322L20.2386 13.4769C20.4928 13.7363 20.8391 13.8848 21.2023 13.89C21.5608 13.9075 21.9102 13.7744 22.1661 13.5228L27.9485 8.06163L26.0669 6.04236L21.2482 10.5857Z" fill="#0D851F"/>
</svg>
