<svg width="27" height="27" viewBox="0 0 27 27" fill="none" xmlns="http://www.w3.org/2000/svg">
<path d="M22.1287 16.345C21.5555 15.7481 20.8641 15.429 20.1313 15.429C19.4044 15.429 18.7071 15.7422 18.1102 16.3391L16.2428 18.2006C16.0891 18.1179 15.9355 18.0411 15.7877 17.9642C15.575 17.8579 15.3741 17.7574 15.2027 17.651C13.4534 16.54 11.8638 15.0922 10.3391 13.2188C9.60039 12.2851 9.10398 11.4991 8.7435 10.7013C9.22809 10.2581 9.67722 9.79718 10.1145 9.35396C10.28 9.18849 10.4455 9.01711 10.6109 8.85164C11.8519 7.61063 11.8519 6.00322 10.6109 4.76221L8.99761 3.14889C8.81441 2.96569 8.62531 2.77658 8.44802 2.58748C8.09344 2.22108 7.72114 1.84287 7.33702 1.48829C6.76379 0.920972 6.07827 0.619583 5.3573 0.619583C4.63633 0.619583 3.939 0.920972 3.34804 1.48829C3.34213 1.4942 3.34213 1.4942 3.33622 1.50011L1.32696 3.5271C0.570534 4.28353 0.139134 5.20543 0.0445808 6.27506C-0.0972494 8.00066 0.410975 9.60807 0.801008 10.66C1.75836 13.2425 3.18848 15.6359 5.32185 18.2006C7.91025 21.2913 11.0246 23.732 14.5822 25.4517C15.9414 26.0958 17.7556 26.8582 19.7826 26.9882C19.9067 26.9941 20.0367 27 20.1549 27C21.52 27 22.6665 26.5095 23.5648 25.5344C23.5707 25.5226 23.5825 25.5167 23.5884 25.5049C23.8957 25.1326 24.2503 24.7957 24.6226 24.4352C24.8767 24.1929 25.1367 23.9388 25.3908 23.6729C25.9759 23.0642 26.2832 22.3551 26.2832 21.6282C26.2832 20.8954 25.97 20.1921 25.3731 19.6012L22.1287 16.345ZM24.2444 22.5678C24.2384 22.5678 24.2384 22.5737 24.2444 22.5678C24.0139 22.816 23.7775 23.0406 23.5234 23.2888C23.1393 23.6552 22.7492 24.0393 22.3828 24.4707C21.786 25.1089 21.0827 25.4103 20.1608 25.4103C20.0722 25.4103 19.9776 25.4103 19.889 25.4044C18.1338 25.2921 16.5028 24.6066 15.2795 24.0216C11.9347 22.4023 8.99761 20.1035 6.55695 17.1901C4.54178 14.7612 3.19439 12.5156 2.30204 10.1045C1.75245 8.63299 1.55153 7.48653 1.64017 6.40507C1.69927 5.71365 1.9652 5.14042 2.45569 4.64992L4.47086 2.63475C4.76043 2.36291 5.06773 2.21517 5.36912 2.21517C5.74143 2.21517 6.04282 2.43974 6.23192 2.62884C6.23783 2.63475 6.24374 2.64066 6.24965 2.64657C6.61014 2.98342 6.95289 3.33209 7.31338 3.70439C7.49658 3.8935 7.68568 4.0826 7.87479 4.27762L9.48811 5.89094C10.1145 6.51735 10.1145 7.09649 9.48811 7.72291C9.31673 7.89429 9.15126 8.06567 8.97988 8.23113C8.48348 8.73936 8.01071 9.21213 7.49658 9.67308C7.48476 9.68489 7.47294 9.6908 7.46703 9.70262C6.9588 10.2108 7.05336 10.7073 7.15973 11.0441C7.16564 11.0618 7.17155 11.0796 7.17746 11.0973C7.59704 12.1137 8.188 13.0711 9.08626 14.2116L9.09217 14.2176C10.7232 16.2268 12.4429 17.7929 14.3399 18.9925C14.5822 19.1461 14.8304 19.2703 15.0668 19.3884C15.2795 19.4948 15.4804 19.5953 15.6518 19.7017C15.6754 19.7135 15.6991 19.7312 15.7227 19.743C15.9237 19.8435 16.1128 19.8908 16.3078 19.8908C16.7983 19.8908 17.1056 19.5835 17.206 19.483L19.2271 17.4619C19.428 17.261 19.7472 17.0187 20.1195 17.0187C20.4859 17.0187 20.7872 17.2492 20.9704 17.4501C20.9764 17.456 20.9764 17.456 20.9823 17.4619L24.2384 20.7181C24.8471 21.3209 24.8471 21.9414 24.2444 22.5678Z" fill="white"/>
</svg>
