<svg width="29" height="28" viewBox="0 0 29 28" fill="none" xmlns="http://www.w3.org/2000/svg">
<g clip-path="url(#clip0)">
<path d="M4.35905 22.4729C3.74801 22.7208 3.40052 23.3579 3.52905 23.9944C3.65757 24.631 4.22635 25.0899 4.88754 25.0904C5.25539 25.0911 5.60835 24.9478 5.86826 24.6924C6.33599 24.2337 6.40851 23.5146 6.04147 22.9749C5.67448 22.4351 4.97008 22.2249 4.35905 22.4729ZM5.27261 23.9817C5.15027 24.1617 4.91543 24.2319 4.71168 24.1492C4.50793 24.0666 4.39197 23.8543 4.43476 23.642C4.47755 23.4297 4.66711 23.2766 4.88754 23.2764C5.01026 23.2761 5.12801 23.3239 5.21477 23.4091C5.37075 23.562 5.39496 23.8017 5.27261 23.9817Z" fill="black"/>
<path d="M27.2484 4.75055C27.2314 4.60064 27.1397 4.46876 27.0036 4.39875C26.8675 4.32874 26.7048 4.32965 26.5695 4.40125L22.7285 6.4314L21.9921 5.12441C21.8733 4.91337 21.8449 4.66454 21.9132 4.43293C21.9816 4.20132 22.141 4.00592 22.3563 3.88982L26.1439 1.84787C26.5304 1.67208 26.7404 1.25617 26.6489 0.847816C26.5677 0.429943 26.1973 0.126519 25.7639 0.122904L20.4941 0.00994403C19.0128 -0.105461 17.6427 0.787482 17.1764 2.17235L15.145 8.15504C14.8033 9.15706 14.2297 10.0677 13.4692 10.8156L2.28244 21.7956C1.35701 22.7039 1.08015 24.0699 1.58091 25.2566C2.08167 26.4434 3.26149 27.2173 4.57021 27.2174C5.42892 27.2197 6.25291 26.8848 6.85847 26.2871L19.9069 13.4801L24.4424 10.3032C24.4441 10.3021 24.4455 10.3007 24.4472 10.2995C24.4507 10.297 24.4544 10.2947 24.4578 10.2921C27.5684 7.91763 27.2628 4.87855 27.2484 4.75055ZM19.3388 12.7636C19.318 12.7782 19.2986 12.7945 19.2805 12.8121L6.20497 25.6458C5.62108 26.2195 4.76968 26.4437 3.97158 26.2339C3.17354 26.0242 2.55021 25.4123 2.33655 24.629C2.12289 23.8458 2.35139 23.0101 2.93594 22.437L14.1227 11.4574C14.9843 10.6097 15.6343 9.57769 16.0214 8.44219L18.0528 2.4595C18.3701 1.5277 19.2621 0.90193 20.263 0.908894C20.3244 0.908894 20.3863 0.911074 20.4485 0.915964L25.7508 1.02627L25.7431 1.03047C25.7327 1.03514 25.7224 1.04019 25.712 1.04578L21.9113 3.09479C21.4807 3.32699 21.162 3.71775 21.0254 4.18091C20.8888 4.64407 20.9456 5.14152 21.1833 5.56354L22.1048 7.19921C22.1214 7.24476 22.1455 7.28718 22.1759 7.32535L23.5699 9.79974L19.3388 12.7636ZM24.3132 9.24413L23.1759 7.22552L26.3114 5.56833C26.1244 6.9979 25.4095 8.3034 24.3132 9.24413Z" fill="black"/>
<path d="M21.5182 8.29039L20.5366 6.68503C20.1337 6.02874 19.2661 5.81574 18.5958 6.20857L18.5864 6.21453C17.9227 6.61172 17.7099 7.46001 18.1098 8.11427L19.0909 9.71964C19.347 10.1383 19.8084 10.394 20.3059 10.3932C20.8153 10.3927 21.2851 10.1234 21.536 9.68827C21.7868 9.25312 21.7801 8.71926 21.5182 8.29039ZM20.5571 9.41823C20.3246 9.55511 20.023 9.48101 19.8835 9.25275L18.9023 7.64739C18.8352 7.53805 18.8152 7.40696 18.8469 7.28316C18.8785 7.15935 18.959 7.05298 19.0707 6.9876L19.0771 6.9834C19.3089 6.85136 19.6058 6.9262 19.7441 7.15148V7.1517L20.7257 8.75706C20.8651 8.98532 20.7897 9.28135 20.5571 9.41823Z" fill="black"/>
<path d="M16.7415 11.2174C16.2624 11.0916 15.7515 11.2265 15.4013 11.5711L6.57511 20.2341C6.17833 20.6232 6.05956 21.2085 6.2742 21.7171C6.48883 22.2257 6.99458 22.5572 7.5554 22.5569C7.92326 22.5575 8.27616 22.4143 8.53613 22.1588L17.3624 13.4959C17.7135 13.1522 17.8509 12.6507 17.7228 12.1806C17.5946 11.7104 17.2205 11.3432 16.7415 11.2174ZM16.7089 12.8544L7.88258 21.5173C7.79609 21.6027 7.67845 21.6505 7.55584 21.6502C7.36882 21.6502 7.20017 21.5397 7.12857 21.3701C7.05697 21.2005 7.09645 21.0053 7.2286 20.8755L16.0549 12.2126C16.1415 12.1276 16.2591 12.0799 16.3816 12.0801C16.5686 12.0798 16.7374 12.1903 16.8091 12.3599C16.8807 12.5294 16.8412 12.7247 16.7089 12.8544Z" fill="black"/>
</g>
<defs>
<clipPath id="clip0">
<rect width="27.7306" height="27.2174" fill="white" transform="translate(0.433411)"/>
</clipPath>
</defs>
</svg>
