<svg width="32" height="31" viewBox="0 0 32 31" fill="none" xmlns="http://www.w3.org/2000/svg">
<g clip-path="url(#clip0)">
<mask id="path-1-outside-1" maskUnits="userSpaceOnUse" x="-0.0992126" y="3.68289" width="33" height="23" fill="black">
<rect fill="white" x="-0.0992126" y="3.68289" width="33" height="23"/>
<path d="M29.1168 14.4294C29.0206 14.2011 28.7545 14.0927 28.5223 14.1873C28.29 14.2817 28.1799 14.5436 28.2761 14.772L30.6466 20.3984C30.6897 20.5005 30.6561 20.585 30.6321 20.6261C30.6084 20.6671 30.5525 20.7377 30.4423 20.7531C29.4618 20.891 28.5227 21.1867 27.6514 21.6318C26.7401 22.0974 25.9266 22.7133 25.2305 23.4645H17.11C16.8588 23.4645 16.655 23.6647 16.655 23.912C16.655 24.1592 16.8588 24.3596 17.11 24.3596H24.8831C24.7222 24.6919 24.3772 24.9224 23.9786 24.9224H2.81225C2.41369 24.9224 2.06892 24.6919 1.90803 24.3596H15.1683C15.4198 24.3596 15.6235 24.1592 15.6235 23.912C15.6235 23.6647 15.4198 23.4645 15.1683 23.4645H2.13598L3.78259 20.599C3.98519 20.6156 4.18707 20.6247 4.38754 20.6247C4.78728 20.6247 5.18182 20.5918 5.56734 20.5261C6.57441 20.3548 7.3829 19.9911 8.11226 19.3817C8.30372 19.2216 8.32694 18.9392 8.16415 18.7509C8.00136 18.5624 7.71441 18.5395 7.52271 18.6996C6.92274 19.2011 6.25215 19.5012 5.41214 19.6443C5.04438 19.707 4.66667 19.7352 4.28257 19.7289L4.41337 19.5012C7.28552 14.5026 12.4685 11.1866 18.2774 10.6309L24.4544 10.0404C24.9601 9.99215 25.4485 10.101 25.8646 10.3335C25.8892 10.3515 25.9157 10.3671 25.9437 10.3797C26.2764 10.5829 26.5581 10.8674 26.7581 11.2158C26.7588 11.2169 26.7593 11.2179 26.76 11.219C26.7617 11.2218 26.7631 11.2246 26.7648 11.2274C25.2084 11.2239 23.6495 11.2745 22.119 11.3777C19.5544 11.5499 17.6249 11.8268 16.047 12.2488C14.5942 12.637 13.3826 13.1688 12.2346 13.9224C10.6482 14.9624 9.74986 16.1012 8.95724 17.1057C8.81602 17.2847 8.68285 17.4536 8.54826 17.6186C8.39115 17.8116 8.42267 18.0933 8.61887 18.2478C8.81507 18.4025 9.10131 18.3713 9.25841 18.1784C9.39751 18.0078 9.53281 17.8363 9.6764 17.6545C10.4264 16.7038 11.2766 15.6263 12.7398 14.6669C13.8182 13.959 14.9117 13.4796 16.2858 13.1126C17.8045 12.7064 19.6776 12.4389 22.1811 12.2709C23.821 12.16 25.4949 12.1118 27.1607 12.1255L27.5811 13.1231C27.6773 13.3515 27.9436 13.4598 28.1758 13.3652C28.408 13.2706 28.5182 13.0089 28.422 12.7805L27.9498 11.6599L28.673 11.5485C29.1914 11.4688 29.5798 11.072 29.6684 10.5906L30.5873 10.3196C31.4079 10.0777 31.9591 9.349 31.9591 8.50638C31.9591 7.46266 31.0958 6.61374 30.0348 6.61374H24.4525C23.8933 6.61374 23.4384 6.1661 23.4384 5.61569V5.1303C23.4384 4.88329 23.2348 4.68289 22.9834 4.68289C22.732 4.68289 22.5282 4.88329 22.5282 5.1303V5.61569C22.5282 6.65942 23.3914 7.50856 24.4525 7.50856H30.0348C30.594 7.50856 31.0489 7.95621 31.0489 8.50638C31.0489 8.95053 30.7584 9.33479 30.326 9.46225L29.4876 9.70949C29.2367 9.33316 28.7777 9.11411 28.2974 9.18798L26.2259 9.50699C25.6707 9.21874 25.029 9.08638 24.3663 9.14977L18.1895 9.74025C15.0643 10.0392 12.1118 11.0988 9.56906 12.7661V12.1786C9.56906 11.8841 9.4013 11.6217 9.13093 11.4945C8.86104 11.3672 8.54849 11.4027 8.3158 11.5865L7.85682 11.9477C7.41039 12.2996 7.15424 12.8239 7.15424 13.3857V14.6471C5.77136 15.918 4.57473 17.401 3.62098 19.0611L0.959965 23.6917C0.917075 23.7663 0.897645 23.8525 0.901199 23.9378C0.901199 24.9741 1.75851 25.8172 2.81225 25.8172H23.9786C24.9805 25.8172 25.8041 25.0552 25.883 24.0895C26.5112 23.4065 27.2465 22.8473 28.0709 22.4262C28.8512 22.0275 29.6923 21.7628 30.571 21.6393C30.9319 21.5887 31.2423 21.3808 31.4228 21.0693C31.6039 20.757 31.6273 20.3872 31.4873 20.0554L29.1168 14.4294ZM28.4381 10.0721C28.5149 10.0604 28.5917 10.0786 28.6547 10.1236C28.7175 10.1688 28.7587 10.2352 28.7706 10.3107C28.7713 10.3144 28.772 10.3179 28.7725 10.3217L28.7739 10.3289C28.7741 10.3317 28.7746 10.3345 28.7751 10.337C28.7997 10.4929 28.691 10.6397 28.5322 10.6642L27.5709 10.8122C27.4609 10.6146 27.3325 10.4316 27.188 10.2646L28.4381 10.0721ZM8.06439 13.3855C8.06439 13.0965 8.19614 12.8269 8.42575 12.6461L8.65915 12.4625V13.4018C8.45774 13.5516 8.25964 13.7052 8.06439 13.8627V13.3855Z"/>
</mask>
<path d="M29.1168 14.4294C29.0206 14.2011 28.7545 14.0927 28.5223 14.1873C28.29 14.2817 28.1799 14.5436 28.2761 14.772L30.6466 20.3984C30.6897 20.5005 30.6561 20.585 30.6321 20.6261C30.6084 20.6671 30.5525 20.7377 30.4423 20.7531C29.4618 20.891 28.5227 21.1867 27.6514 21.6318C26.7401 22.0974 25.9266 22.7133 25.2305 23.4645H17.11C16.8588 23.4645 16.655 23.6647 16.655 23.912C16.655 24.1592 16.8588 24.3596 17.11 24.3596H24.8831C24.7222 24.6919 24.3772 24.9224 23.9786 24.9224H2.81225C2.41369 24.9224 2.06892 24.6919 1.90803 24.3596H15.1683C15.4198 24.3596 15.6235 24.1592 15.6235 23.912C15.6235 23.6647 15.4198 23.4645 15.1683 23.4645H2.13598L3.78259 20.599C3.98519 20.6156 4.18707 20.6247 4.38754 20.6247C4.78728 20.6247 5.18182 20.5918 5.56734 20.5261C6.57441 20.3548 7.3829 19.9911 8.11226 19.3817C8.30372 19.2216 8.32694 18.9392 8.16415 18.7509C8.00136 18.5624 7.71441 18.5395 7.52271 18.6996C6.92274 19.2011 6.25215 19.5012 5.41214 19.6443C5.04438 19.707 4.66667 19.7352 4.28257 19.7289L4.41337 19.5012C7.28552 14.5026 12.4685 11.1866 18.2774 10.6309L24.4544 10.0404C24.9601 9.99215 25.4485 10.101 25.8646 10.3335C25.8892 10.3515 25.9157 10.3671 25.9437 10.3797C26.2764 10.5829 26.5581 10.8674 26.7581 11.2158C26.7588 11.2169 26.7593 11.2179 26.76 11.219C26.7617 11.2218 26.7631 11.2246 26.7648 11.2274C25.2084 11.2239 23.6495 11.2745 22.119 11.3777C19.5544 11.5499 17.6249 11.8268 16.047 12.2488C14.5942 12.637 13.3826 13.1688 12.2346 13.9224C10.6482 14.9624 9.74986 16.1012 8.95724 17.1057C8.81602 17.2847 8.68285 17.4536 8.54826 17.6186C8.39115 17.8116 8.42267 18.0933 8.61887 18.2478C8.81507 18.4025 9.10131 18.3713 9.25841 18.1784C9.39751 18.0078 9.53281 17.8363 9.6764 17.6545C10.4264 16.7038 11.2766 15.6263 12.7398 14.6669C13.8182 13.959 14.9117 13.4796 16.2858 13.1126C17.8045 12.7064 19.6776 12.4389 22.1811 12.2709C23.821 12.16 25.4949 12.1118 27.1607 12.1255L27.5811 13.1231C27.6773 13.3515 27.9436 13.4598 28.1758 13.3652C28.408 13.2706 28.5182 13.0089 28.422 12.7805L27.9498 11.6599L28.673 11.5485C29.1914 11.4688 29.5798 11.072 29.6684 10.5906L30.5873 10.3196C31.4079 10.0777 31.9591 9.349 31.9591 8.50638C31.9591 7.46266 31.0958 6.61374 30.0348 6.61374H24.4525C23.8933 6.61374 23.4384 6.1661 23.4384 5.61569V5.1303C23.4384 4.88329 23.2348 4.68289 22.9834 4.68289C22.732 4.68289 22.5282 4.88329 22.5282 5.1303V5.61569C22.5282 6.65942 23.3914 7.50856 24.4525 7.50856H30.0348C30.594 7.50856 31.0489 7.95621 31.0489 8.50638C31.0489 8.95053 30.7584 9.33479 30.326 9.46225L29.4876 9.70949C29.2367 9.33316 28.7777 9.11411 28.2974 9.18798L26.2259 9.50699C25.6707 9.21874 25.029 9.08638 24.3663 9.14977L18.1895 9.74025C15.0643 10.0392 12.1118 11.0988 9.56906 12.7661V12.1786C9.56906 11.8841 9.4013 11.6217 9.13093 11.4945C8.86104 11.3672 8.54849 11.4027 8.3158 11.5865L7.85682 11.9477C7.41039 12.2996 7.15424 12.8239 7.15424 13.3857V14.6471C5.77136 15.918 4.57473 17.401 3.62098 19.0611L0.959965 23.6917C0.917075 23.7663 0.897645 23.8525 0.901199 23.9378C0.901199 24.9741 1.75851 25.8172 2.81225 25.8172H23.9786C24.9805 25.8172 25.8041 25.0552 25.883 24.0895C26.5112 23.4065 27.2465 22.8473 28.0709 22.4262C28.8512 22.0275 29.6923 21.7628 30.571 21.6393C30.9319 21.5887 31.2423 21.3808 31.4228 21.0693C31.6039 20.757 31.6273 20.3872 31.4873 20.0554L29.1168 14.4294ZM28.4381 10.0721C28.5149 10.0604 28.5917 10.0786 28.6547 10.1236C28.7175 10.1688 28.7587 10.2352 28.7706 10.3107C28.7713 10.3144 28.772 10.3179 28.7725 10.3217L28.7739 10.3289C28.7741 10.3317 28.7746 10.3345 28.7751 10.337C28.7997 10.4929 28.691 10.6397 28.5322 10.6642L27.5709 10.8122C27.4609 10.6146 27.3325 10.4316 27.188 10.2646L28.4381 10.0721ZM8.06439 13.3855C8.06439 13.0965 8.19614 12.8269 8.42575 12.6461L8.65915 12.4625V13.4018C8.45774 13.5516 8.25964 13.7052 8.06439 13.8627V13.3855Z" fill="black"/>
<path d="M29.1168 14.4294C29.0206 14.2011 28.7545 14.0927 28.5223 14.1873C28.29 14.2817 28.1799 14.5436 28.2761 14.772L30.6466 20.3984C30.6897 20.5005 30.6561 20.585 30.6321 20.6261C30.6084 20.6671 30.5525 20.7377 30.4423 20.7531C29.4618 20.891 28.5227 21.1867 27.6514 21.6318C26.7401 22.0974 25.9266 22.7133 25.2305 23.4645H17.11C16.8588 23.4645 16.655 23.6647 16.655 23.912C16.655 24.1592 16.8588 24.3596 17.11 24.3596H24.8831C24.7222 24.6919 24.3772 24.9224 23.9786 24.9224H2.81225C2.41369 24.9224 2.06892 24.6919 1.90803 24.3596H15.1683C15.4198 24.3596 15.6235 24.1592 15.6235 23.912C15.6235 23.6647 15.4198 23.4645 15.1683 23.4645H2.13598L3.78259 20.599C3.98519 20.6156 4.18707 20.6247 4.38754 20.6247C4.78728 20.6247 5.18182 20.5918 5.56734 20.5261C6.57441 20.3548 7.3829 19.9911 8.11226 19.3817C8.30372 19.2216 8.32694 18.9392 8.16415 18.7509C8.00136 18.5624 7.71441 18.5395 7.52271 18.6996C6.92274 19.2011 6.25215 19.5012 5.41214 19.6443C5.04438 19.707 4.66667 19.7352 4.28257 19.7289L4.41337 19.5012C7.28552 14.5026 12.4685 11.1866 18.2774 10.6309L24.4544 10.0404C24.9601 9.99215 25.4485 10.101 25.8646 10.3335C25.8892 10.3515 25.9157 10.3671 25.9437 10.3797C26.2764 10.5829 26.5581 10.8674 26.7581 11.2158C26.7588 11.2169 26.7593 11.2179 26.76 11.219C26.7617 11.2218 26.7631 11.2246 26.7648 11.2274C25.2084 11.2239 23.6495 11.2745 22.119 11.3777C19.5544 11.5499 17.6249 11.8268 16.047 12.2488C14.5942 12.637 13.3826 13.1688 12.2346 13.9224C10.6482 14.9624 9.74986 16.1012 8.95724 17.1057C8.81602 17.2847 8.68285 17.4536 8.54826 17.6186C8.39115 17.8116 8.42267 18.0933 8.61887 18.2478C8.81507 18.4025 9.10131 18.3713 9.25841 18.1784C9.39751 18.0078 9.53281 17.8363 9.6764 17.6545C10.4264 16.7038 11.2766 15.6263 12.7398 14.6669C13.8182 13.959 14.9117 13.4796 16.2858 13.1126C17.8045 12.7064 19.6776 12.4389 22.1811 12.2709C23.821 12.16 25.4949 12.1118 27.1607 12.1255L27.5811 13.1231C27.6773 13.3515 27.9436 13.4598 28.1758 13.3652C28.408 13.2706 28.5182 13.0089 28.422 12.7805L27.9498 11.6599L28.673 11.5485C29.1914 11.4688 29.5798 11.072 29.6684 10.5906L30.5873 10.3196C31.4079 10.0777 31.9591 9.349 31.9591 8.50638C31.9591 7.46266 31.0958 6.61374 30.0348 6.61374H24.4525C23.8933 6.61374 23.4384 6.1661 23.4384 5.61569V5.1303C23.4384 4.88329 23.2348 4.68289 22.9834 4.68289C22.732 4.68289 22.5282 4.88329 22.5282 5.1303V5.61569C22.5282 6.65942 23.3914 7.50856 24.4525 7.50856H30.0348C30.594 7.50856 31.0489 7.95621 31.0489 8.50638C31.0489 8.95053 30.7584 9.33479 30.326 9.46225L29.4876 9.70949C29.2367 9.33316 28.7777 9.11411 28.2974 9.18798L26.2259 9.50699C25.6707 9.21874 25.029 9.08638 24.3663 9.14977L18.1895 9.74025C15.0643 10.0392 12.1118 11.0988 9.56906 12.7661V12.1786C9.56906 11.8841 9.4013 11.6217 9.13093 11.4945C8.86104 11.3672 8.54849 11.4027 8.3158 11.5865L7.85682 11.9477C7.41039 12.2996 7.15424 12.8239 7.15424 13.3857V14.6471C5.77136 15.918 4.57473 17.401 3.62098 19.0611L0.959965 23.6917C0.917075 23.7663 0.897645 23.8525 0.901199 23.9378C0.901199 24.9741 1.75851 25.8172 2.81225 25.8172H23.9786C24.9805 25.8172 25.8041 25.0552 25.883 24.0895C26.5112 23.4065 27.2465 22.8473 28.0709 22.4262C28.8512 22.0275 29.6923 21.7628 30.571 21.6393C30.9319 21.5887 31.2423 21.3808 31.4228 21.0693C31.6039 20.757 31.6273 20.3872 31.4873 20.0554L29.1168 14.4294ZM28.4381 10.0721C28.5149 10.0604 28.5917 10.0786 28.6547 10.1236C28.7175 10.1688 28.7587 10.2352 28.7706 10.3107C28.7713 10.3144 28.772 10.3179 28.7725 10.3217L28.7739 10.3289C28.7741 10.3317 28.7746 10.3345 28.7751 10.337C28.7997 10.4929 28.691 10.6397 28.5322 10.6642L27.5709 10.8122C27.4609 10.6146 27.3325 10.4316 27.188 10.2646L28.4381 10.0721ZM8.06439 13.3855C8.06439 13.0965 8.19614 12.8269 8.42575 12.6461L8.65915 12.4625V13.4018C8.45774 13.5516 8.25964 13.7052 8.06439 13.8627V13.3855Z" stroke="black" stroke-width="0.6" mask="url(#path-1-outside-1)"/>
<path d="M25.6693 16.3771V16.302C25.6693 14.8185 24.443 13.616 22.9408 13.616H16.8337C15.3312 13.616 14.1049 14.8185 14.1049 16.302V16.3771C14.1049 17.8604 15.3312 19.0629 16.8337 19.0629H22.9408C24.443 19.0629 25.6693 17.8604 25.6693 16.3771ZM18.435 17.8678V17.676C18.435 17.6273 18.4763 17.5829 18.5324 17.5829H21.2235C21.2793 17.5829 21.3207 17.6272 21.3207 17.676V17.8678H18.435ZM24.4592 16.3771C24.4592 17.1965 23.7804 17.8678 22.9408 17.8678H22.5308V17.676C22.5308 16.9632 21.9421 16.3879 21.2235 16.3879H18.5324C17.8136 16.3879 17.2249 16.9632 17.2249 17.676V17.8678H16.8334C15.9938 17.8678 15.315 17.1965 15.315 16.3771V16.302C15.315 15.4824 15.9938 14.8111 16.8334 14.8111H22.9408C23.7801 14.8111 24.4592 15.4824 24.4592 16.302V16.3771Z" fill="black" stroke="black" stroke-width="0.3"/>
<path d="M9.1141 22.3003C9.45043 22.3003 9.72735 22.0316 9.72735 21.695C9.72735 21.358 9.45038 21.0896 9.1141 21.0896C8.77801 21.0896 8.50109 21.358 8.50109 21.695C8.50109 22.0316 8.77796 22.3003 9.1141 22.3003Z" fill="black" stroke="black" stroke-width="0.3"/>
<path d="M11.059 22.3003C11.3954 22.3003 11.6723 22.0316 11.6723 21.695C11.6723 21.358 11.3953 21.0896 11.059 21.0896C10.7229 21.0896 10.446 21.358 10.446 21.695C10.446 22.0316 10.7229 22.3003 11.059 22.3003Z" fill="black" stroke="black" stroke-width="0.3"/>
<path d="M21.2159 22.3003C21.5521 22.3003 21.8289 22.0316 21.8289 21.695C21.8289 21.358 21.552 21.0896 21.2159 21.0896C20.8797 21.0896 20.6027 21.358 20.6027 21.695C20.6027 22.0316 20.8796 22.3003 21.2159 22.3003Z" fill="black" stroke="black" stroke-width="0.3"/>
<path d="M23.1606 22.3003C23.497 22.3003 23.7739 22.0316 23.7739 21.695C23.7739 21.358 23.4969 21.0896 23.1606 21.0896C22.8246 21.0896 22.5476 21.358 22.5476 21.695C22.5476 22.0316 22.8245 22.3003 23.1606 22.3003Z" fill="black" stroke="black" stroke-width="0.3"/>
</g>
<defs>
<clipPath id="clip0">
<rect width="31.0583" height="30.4835" fill="white" transform="translate(0.900726)"/>
</clipPath>
</defs>
</svg>
