<svg width="28" height="27" viewBox="0 0 28 27" fill="none" xmlns="http://www.w3.org/2000/svg">
<g clip-path="url(#clip0)">
<path d="M11.1905 13.8978C11.0933 13.8029 10.9596 13.7483 10.8224 13.7483C10.6857 13.7483 10.5516 13.8029 10.4549 13.8978C10.3582 13.9927 10.3031 14.1244 10.3031 14.2586C10.3031 14.3927 10.3582 14.5244 10.4549 14.6193C10.5521 14.7142 10.6857 14.7688 10.8224 14.7688C10.9597 14.7688 11.0933 14.7142 11.1905 14.6193C11.2872 14.5244 11.3423 14.3927 11.3423 14.2586C11.3423 14.1244 11.2872 13.9927 11.1905 13.8978Z" fill="black"/>
<path d="M25.5996 11.2001C25.1611 10.784 24.6542 10.4602 24.1049 10.2378C23.7483 8.10154 22.7344 6.1622 21.1684 4.6252C17.0738 0.60638 10.4113 0.60638 6.31667 4.6252C5.01966 5.8982 4.08994 7.47144 3.61112 9.19547C3.31517 9.1843 3.01765 9.25717 2.7516 9.41353C2.27662 9.69263 1.9931 10.1836 1.9931 10.727V14.7549C1.62633 14.9127 1.36921 15.272 1.36921 15.6896V17.9399C0.844533 17.9913 0.433411 18.4271 0.433411 18.9554V26.2012C0.433411 27.0452 1.13305 27.732 1.9931 27.732H6.77609C7.63609 27.732 8.33578 27.0453 8.33578 26.2012V20.7533C9.51975 21.454 10.821 21.9113 12.183 22.109V24.6672H11.9318C10.4967 24.6672 9.32914 25.8132 9.32914 27.2217C9.32914 27.5035 9.56192 27.732 9.84903 27.732H17.6362C17.9233 27.732 18.1561 27.5035 18.1561 27.2217C18.1561 25.8132 16.9885 24.6672 15.5534 24.6672H15.3025V22.1086C16.7543 21.8979 18.1337 21.3935 19.3737 20.6172V25.7159C19.3737 26.8276 20.2951 27.732 21.4278 27.732H22.9615C24.0941 27.732 25.0156 26.8276 25.0156 25.7159V19.706L26.5612 16.6274C27.4793 14.7985 27.0929 12.6175 25.5996 11.2001ZM3.03289 10.727C3.03289 10.466 3.20972 10.3339 3.28569 10.2892C3.3617 10.2445 3.56381 10.1539 3.79825 10.2772L5.46187 11.1521C5.63112 11.2411 5.7362 11.4135 5.7362 11.6019V14.669H3.03289V10.727ZM2.40905 15.6897H6.36024V17.9349H2.40905V15.6897ZM7.29599 26.2012C7.29599 26.4826 7.06279 26.7115 6.77609 26.7115H1.9931C1.70645 26.7115 1.4732 26.4826 1.4732 26.2012V18.9554H7.29594V26.2012H7.29599ZM15.5535 25.6877C16.2331 25.6877 16.8128 26.1157 17.0275 26.7115H10.4578C10.6725 26.1157 11.2522 25.6877 11.9319 25.6877H12.7029H14.7825H15.5535ZM13.2228 24.6672V22.2084C13.3942 22.2165 13.5663 22.221 13.7391 22.221C13.7865 22.221 13.8342 22.2207 13.8817 22.2201C14.0091 22.2185 14.1359 22.2143 14.2626 22.2083V24.6672H13.2228ZM8.33573 19.5364V18.9554C8.33578 18.4271 7.92466 17.9913 7.39998 17.94V15.6896C7.39998 15.2721 7.14292 14.9128 6.77609 14.7549V11.6019C6.77609 11.0366 6.46074 10.5196 5.95307 10.2526L4.59434 9.5381C5.01929 7.9563 5.86468 6.51223 7.05198 5.3469C10.7412 1.72593 16.7441 1.72598 20.4332 5.3469C21.7292 6.61889 22.6058 8.19641 22.989 9.93621C22.7589 9.90299 22.5248 9.88584 22.2884 9.88584C22.0206 9.88584 21.7561 9.90886 21.4966 9.95137C21.077 8.35369 20.1424 6.90875 18.8357 5.85023C17.407 4.69297 15.5982 4.05562 13.7428 4.05562C12.335 4.05562 10.9504 4.41938 9.73849 5.10766C8.5632 5.77511 7.5726 6.73198 6.87358 7.87495C6.72581 8.11654 6.80557 8.43003 7.05182 8.57507C7.29796 8.72 7.61732 8.64182 7.76514 8.40013C9.03802 6.31876 11.2727 5.07607 13.7428 5.07607C14.4093 5.07607 15.0584 5.17007 15.6754 5.34608L11.8387 9.11178C11.6356 9.31106 11.6356 9.63415 11.8387 9.83338C11.9402 9.93305 12.0732 9.98285 12.2063 9.98285C12.3393 9.98285 12.4724 9.93299 12.5739 9.83338L16.7392 5.74521C17.4017 6.05661 18.0096 6.46824 18.54 6.96188L11.8598 13.5185C11.6567 13.7178 11.6567 14.0409 11.8598 14.2401C11.9613 14.3398 12.0943 14.3896 12.2274 14.3896C12.3604 14.3896 12.4935 14.3398 12.595 14.2401L19.2401 7.71798C19.8203 8.44652 20.255 9.2959 20.4957 10.2277C19.9372 10.4503 19.422 10.7779 18.9771 11.2002L18.9181 11.2562C17.4644 12.6359 17.0571 14.7738 17.9044 16.5759L18.1877 17.1786C16.9397 18.1949 15.3732 18.7513 13.7426 18.7513C12.3975 18.7513 11.0922 18.3745 9.96789 17.6617C9.72674 17.5087 9.4049 17.5767 9.24912 17.8134C9.09329 18.0501 9.16255 18.366 9.40375 18.5189C10.6965 19.3386 12.1969 19.7718 13.7426 19.7718C15.5243 19.7718 17.239 19.1935 18.6365 18.1328L19.2603 19.4595C16.0399 21.731 11.5942 21.7675 8.33573 19.5364ZM23.9756 25.7159C23.9756 26.2649 23.5206 26.7115 22.9613 26.7115H21.4276C20.8683 26.7115 20.4133 26.2649 20.4133 25.7159V22.5202H23.9756V25.7159H23.9756ZM23.9756 21.4997H20.4134V20.0881H23.9756V21.4997ZM25.6283 16.1763L24.1768 19.0676H23.91V16.972C23.91 16.6902 23.6772 16.4617 23.3901 16.4617C23.103 16.4617 22.8702 16.6902 22.8702 16.972V19.0676H20.2212L18.8485 16.1483C18.1861 14.7395 18.5047 13.0684 19.641 11.9897L19.7 11.9337C21.1514 10.5561 23.4254 10.5561 24.8769 11.9337C26.0441 13.0417 26.3462 14.7466 25.6283 16.1763Z" fill="black"/>
<path d="M23.7578 13.8978C23.6611 13.8029 23.5269 13.7483 23.3902 13.7483C23.2535 13.7483 23.1194 13.8029 23.0227 13.8978C22.926 13.9927 22.8703 14.1244 22.8703 14.2586C22.8703 14.3927 22.926 14.5244 23.0227 14.6193C23.1194 14.7142 23.2535 14.7688 23.3902 14.7688C23.527 14.7688 23.6611 14.7142 23.7578 14.6193C23.8545 14.5244 23.9101 14.3927 23.9101 14.2586C23.9101 14.1244 23.8545 13.9927 23.7578 13.8978Z" fill="black"/>
</g>
<defs>
<clipPath id="clip0">
<rect width="26.6214" height="26.1287" fill="white" transform="translate(0.433411 0.607727)"/>
</clipPath>
</defs>
</svg>
