<svg width="27" height="27" viewBox="0 0 27 27" fill="none" xmlns="http://www.w3.org/2000/svg">
<g clip-path="url(#clip0)">
<path d="M20.911 21.7305L20.911 21.7305C21.3518 21.2978 21.4942 20.6974 21.4331 20.0181C21.3722 19.3408 21.1083 18.5682 20.7155 17.7604C19.9293 16.1436 18.6074 14.3481 17.2615 12.8248L17.164 12.7144L17.0519 12.8099L16.3977 13.3666L16.2814 13.4657L16.3825 13.5802C18.0306 15.4454 19.1409 17.1272 19.7416 18.4316C20.0424 19.0846 20.2122 19.6361 20.2613 20.0647C20.3112 20.4995 20.2338 20.773 20.0886 20.9155C19.9021 21.0986 19.5292 21.1695 18.9456 21.0566C18.3728 20.9459 17.6423 20.6659 16.7973 20.2182C15.1092 19.3237 12.9904 17.7736 10.8063 15.63C8.62229 13.4863 7.04311 11.4068 6.13199 9.75035C5.67594 8.92121 5.39105 8.20485 5.27836 7.64366C5.16358 7.0721 5.23591 6.70921 5.42109 6.52745C5.56723 6.38405 5.84834 6.30777 6.2928 6.35688C6.73066 6.40526 7.29335 6.57224 7.95887 6.86747C9.2885 7.45731 11.0022 8.54722 12.9028 10.1647L13.0149 10.2602L13.1124 10.1498L13.6796 9.50778L13.7808 9.39327L13.6644 9.29423C12.1124 7.97334 10.2832 6.67615 8.63646 5.90478C7.81367 5.51937 7.02734 5.26088 6.33863 5.20122C5.64869 5.14145 5.03894 5.28049 4.59873 5.71252L4.7038 5.81958L4.59873 5.71253C4.23248 6.07199 4.07323 6.55841 4.07323 7.11982C4.07333 8.29682 4.77272 9.85836 5.84634 11.496C6.92489 13.1411 8.39858 14.8889 9.98399 16.445C11.9423 18.3671 14.2 20.1232 16.191 21.1868C17.1857 21.7181 18.1226 22.0814 18.9276 22.2016C19.7316 22.3216 20.4306 22.202 20.911 21.7305Z" fill="black" stroke="black" stroke-width="0.3"/>
<path d="M25.0484 10.3577L25.0484 10.3578C23.4578 11.9184 21.1635 12.5169 19.0041 11.9522C17.5694 12.8379 16.5951 13.9505 16.0202 15.3479C16.0202 15.348 16.0202 15.348 16.0202 15.348L15.8814 15.2909C15.8374 15.3981 15.7506 15.4831 15.6414 15.5262C15.5322 15.5692 15.4097 15.5667 15.3023 15.5192L25.0484 10.3577ZM25.0484 10.3577C26.2324 9.19567 26.8853 7.64946 26.8852 6.00514L25.0484 10.3577ZM16.9047 2.36049L17.0097 2.46754C15.6637 3.7885 15.1813 5.71598 15.7488 7.49909C15.7668 7.5556 15.7756 7.61365 15.7756 7.67143C15.7756 7.77855 15.7453 7.88472 15.6863 7.9772M16.9047 2.36049L12.0535 11.1632C13.4811 10.4081 14.6588 9.31139 15.5598 7.89662L15.6863 7.97728C15.6863 7.97725 15.6863 7.97723 15.6863 7.9772M16.9047 2.36049L17.0097 2.46754C17.9733 1.52175 19.2542 1.00068 20.6179 1.00068C21.9816 1.00068 23.2623 1.52175 24.2256 2.46753L24.2483 2.48977M16.9047 2.36049L24.2483 2.48977M15.6863 7.9772C14.7734 9.41064 13.5792 10.5242 12.1312 11.2918C12.9787 12.6746 14.0078 13.6973 15.198 14.3499M15.6863 7.9772L15.198 14.3499M15.198 14.3499C15.9247 12.9055 17.0529 11.7516 18.6225 10.8353C18.7644 10.7524 18.9351 10.7328 19.0923 10.781L19.0923 10.781C20.913 11.3386 22.88 10.8635 24.2262 9.54261C25.1897 8.59692 25.7194 7.34105 25.7194 6.00516L15.198 14.3499ZM24.2483 2.48977C25.1977 3.43287 25.7193 4.67955 25.7194 6.00514L24.2483 2.48977ZM20.6178 -0.148993C22.2906 -0.148993 23.8645 0.490744 25.048 1.6526L20.6178 -0.148993ZM20.6178 -0.148993C18.9451 -0.148993 17.3711 0.490749 16.1872 1.65267M20.6178 -0.148993L16.1872 1.65267M16.1872 1.65267C14.599 3.21136 13.9872 5.46047 14.5588 7.57956L16.1872 1.65267ZM26.8852 6.00513C26.8852 4.3607 26.2322 2.81463 25.0481 1.65262L26.8852 6.00513Z" fill="black" stroke="black" stroke-width="0.3"/>
<path d="M19.4836 11.55L19.4836 11.5501C19.3635 11.8458 19.0244 11.9868 18.7276 11.8707L18.7822 11.731L18.7276 11.8707C17.8472 11.5263 17.1038 11.0169 16.5206 10.3551M19.4836 11.55L17.4007 9.60087C17.19 9.36171 16.8234 9.3361 16.5805 9.54223C16.4469 9.65561 16.3778 9.81636 16.3778 9.97813C16.3778 10.1119 16.425 10.2465 16.5206 10.3551M19.4836 11.55C19.6043 11.2527 19.4555 10.9185 19.1574 10.8018L19.1574 10.8018M19.4836 11.55L19.1574 10.8018M16.5206 10.3551L16.6332 10.2559L16.5206 10.3551ZM19.1574 10.8018C18.4479 10.5244 17.858 10.1198 17.4007 9.60088L19.1574 10.8018Z" fill="black" stroke="black" stroke-width="0.3"/>
<path d="M18.0877 4.96858L18.0878 4.96839L17.1379 4.61363L16.998 4.55959C16.998 4.5596 16.998 4.55961 16.998 4.55963C16.8375 4.97497 16.7565 5.40505 16.7565 5.8418C16.7565 5.94703 16.7611 6.05288 16.7707 6.15901L16.9201 6.14547L16.7707 6.15884C16.7992 6.47757 17.0841 6.7086 17.4021 6.68126C17.7204 6.6539 17.9606 6.3769 17.9321 6.05809C17.8991 5.68797 17.9511 5.32199 18.0877 4.96858Z" fill="black" stroke="black" stroke-width="0.3"/>
<path d="M16.5066 20.561L16.5549 20.4172L16.4106 20.3706L15.5882 20.1047L15.4471 20.059L15.3999 20.1997C15.0405 21.2703 14.4437 22.2203 13.6248 23.0242C12.2423 24.3812 10.4045 25.1288 8.44866 25.1288C6.49282 25.1288 4.65514 24.3813 3.2728 23.0242L3.27277 23.0242C1.8902 21.6675 1.12974 19.8653 1.12974 17.9482C1.12974 16.031 1.89033 14.2286 3.27278 12.8717C4.08489 12.0747 5.04494 11.491 6.1273 11.1364L6.27147 11.0891L6.2226 10.9455L5.94832 10.1395L5.90054 9.99908L5.75961 10.0453C4.50498 10.4564 3.39121 11.1333 2.45037 12.0567L2.45036 12.0567C0.84752 13.63 -0.0361388 15.7226 -0.0361389 17.9482C-0.036139 20.1738 0.847378 22.2664 2.45035 23.8393C4.05298 25.4125 6.18368 26.2787 8.44866 26.2787C10.7137 26.2787 12.8443 25.4124 14.4472 23.8392L14.343 23.733L14.4472 23.8392C15.3961 22.9079 16.0893 21.8046 16.5066 20.561Z" fill="black" stroke="black" stroke-width="0.3"/>
<path d="M5.30801 21.0264C3.57846 19.3288 3.57845 16.5676 5.30801 14.8699C5.97508 14.2153 6.81754 13.7928 7.74515 13.6479L7.89421 13.6246L7.87007 13.4757L7.73405 12.6364L7.71019 12.4892L7.56284 12.5122C6.3921 12.695 5.32764 13.2286 4.48566 14.0549L4.48566 14.0549C3.39242 15.1279 2.84544 16.5381 2.84544 17.9482C2.84544 19.3583 3.39255 20.7686 4.48565 21.8415L4.48566 21.8415C6.67122 23.9864 10.2257 23.9864 12.4111 21.8416C13.2516 21.0172 13.7956 19.9731 13.9829 18.8232L14.0071 18.6743L13.8581 18.6509L13.0031 18.5167L12.8557 18.4935L12.8318 18.6407C12.6838 19.5488 12.2545 20.3735 11.5888 21.0263L11.5887 21.0264C9.85748 22.7255 7.03926 22.7255 5.30801 21.0264Z" fill="black" stroke="black" stroke-width="0.3"/>
</g>
<defs>
<clipPath id="clip0">
<rect width="26.1287" height="26.6214" fill="white" transform="translate(26.7352) rotate(90)"/>
</clipPath>
</defs>
</svg>
