<svg width="29" height="29" viewBox="0 0 29 29" fill="none" xmlns="http://www.w3.org/2000/svg">
<g clip-path="url(#clip0)">
<path d="M16.2975 5.20366C16.4499 4.91692 16.531 4.5988 16.5339 4.27539C16.5339 3.12518 15.5839 2.19275 14.412 2.19275C13.2401 2.19275 12.2901 3.12518 12.2901 4.27539C12.2931 4.5988 12.3742 4.91692 12.5266 5.20366C7.45822 5.45358 2.82639 6.72696 2.82639 8.94647C2.82473 9.27508 3.09481 9.54285 3.42962 9.54449C3.45092 9.54456 3.47214 9.54359 3.49328 9.54151H25.3914C25.7262 9.54151 25.9977 9.27508 25.9977 8.94647C25.9977 6.72696 21.384 5.45358 16.2975 5.20366ZM14.4423 3.38878C14.9379 3.38878 15.3396 3.78307 15.3396 4.26944C15.3396 4.75582 14.9379 5.1501 14.4423 5.1501C13.9468 5.1501 13.5451 4.75582 13.5451 4.26944C13.5451 3.78307 13.9468 3.38878 14.4423 3.38878ZM4.46936 8.37523C5.59094 7.38746 9.24063 6.34019 14.4423 6.34019V6.36399C19.6441 6.36399 23.2937 7.41126 24.4153 8.37523H4.46936Z" fill="black"/>
<path d="M5.61517 12.4096C5.28036 12.4096 5.00891 12.676 5.00891 13.0046V19.4013C5.00891 19.7299 5.28036 19.9964 5.61517 19.9964C5.94998 19.9964 6.22143 19.7299 6.22143 19.4013V13.0046C6.22143 12.676 5.94998 12.4096 5.61517 12.4096Z" fill="black"/>
<path d="M28.2408 12.5703H25.9976V10.8684C25.9976 10.5398 25.7262 10.2734 25.3914 10.2734H3.49326C3.15845 10.2734 2.887 10.5398 2.887 10.8684V12.5703H0.613524C0.278716 12.5703 0.00726318 12.8367 0.00726318 13.1653C0.00726318 13.4939 0.278716 13.7604 0.613524 13.7604H2.89306V22.5432C2.89306 25.1792 4.81491 26.1134 6.62156 26.1134H22.3237C25.0094 26.1134 25.9613 24.2688 25.9613 22.5432V13.7604H28.2408C28.5756 13.7604 28.8471 13.4939 28.8471 13.1653C28.8471 12.8367 28.5756 12.5703 28.2408 12.5703ZM24.7851 22.5432C24.7851 23.6321 24.3607 24.9233 22.3601 24.9233H6.59731C5.65761 24.9233 4.08133 24.6139 4.08133 22.5432V11.4635H24.7851V22.5432Z" fill="black"/>
</g>
<defs>
<clipPath id="clip0">
<rect width="28.8398" height="28.3061" fill="white" transform="translate(0.00726318)"/>
</clipPath>
</defs>
</svg>
