<svg width="26" height="26" viewBox="0 0 26 26" fill="none" xmlns="http://www.w3.org/2000/svg">
<g clip-path="url(#clip0)">
<path d="M3.51073 5.98982L3.51074 5.9898C3.72017 5.70123 3.65075 5.30098 3.35861 5.09667C3.06813 4.89353 2.66456 4.9591 2.4563 5.24596L2.4563 5.24597C0.849517 7.45932 0.0249602 10.0738 0.0722636 12.8054C0.116673 15.3689 0.926189 17.803 2.4179 19.8775C1.84231 20.7399 1.94011 21.9114 2.71104 22.6682L2.71105 22.6682C3.15217 23.1011 3.73114 23.317 4.30893 23.317C4.88671 23.317 5.46568 23.1011 5.9068 22.6682L5.80174 22.5611L5.90681 22.6682C6.78983 21.8014 6.78983 20.3904 5.90681 19.5237L5.80174 19.6308L5.90681 19.5237C5.4797 19.1045 4.91167 18.8738 4.30893 18.8738C3.99697 18.8738 3.69445 18.9361 3.41575 19.054C0.680295 15.16 0.69491 9.8686 3.51073 5.98982ZM3.62585 20.4294L3.62586 20.4294C3.80806 20.2506 4.0501 20.1519 4.30888 20.1519C4.56766 20.1519 4.80975 20.2506 4.99188 20.4294L4.9919 20.4294C5.36664 20.7972 5.36664 21.3947 4.99196 21.7624C4.61563 22.1317 4.00206 22.1316 3.62586 21.7624C3.25116 21.3946 3.25117 20.7971 3.62585 20.4294Z" fill="black" stroke="black" stroke-width="0.3"/>
<path d="M19.7661 21.8315L19.7661 21.8316C18.3598 22.8289 16.7791 23.4896 15.0669 23.7955L15.0927 23.94L15.0669 23.7955C14.7079 23.8597 14.3426 23.7651 14.0644 23.5373L13.9693 23.6533L14.0644 23.5373C13.7884 23.3113 13.6311 22.9803 13.6311 22.6291V19.1897C14.239 19.1366 14.721 18.6335 14.721 18.0173V17.2943C16.4127 16.6168 17.611 14.9836 17.611 13.0778V10.874C18.4193 10.6075 19.0062 9.85642 19.0062 8.96964C19.0062 7.99418 18.2963 7.18295 17.3619 7.00025V4.07899C17.3619 3.18451 16.6215 2.4618 15.717 2.4618C14.8126 2.4618 14.0722 3.18451 14.0722 4.07899V6.96119H11.8807V4.07899C11.8807 3.18451 11.1403 2.4618 10.2359 2.4618C9.33142 2.4618 8.59102 3.18451 8.59102 4.07899V7.00025C7.6566 7.18294 6.94668 7.99413 6.94668 8.96964C6.94668 9.85642 7.5336 10.6075 8.34188 10.874V13.0778C8.34188 14.9836 9.54016 16.6168 11.2319 17.2943V18.0173C11.2319 18.6378 11.7206 19.1436 12.3345 19.1908V22.6291C12.3345 23.3624 12.6636 24.0518 13.2358 24.5204L13.3308 24.4044L13.2358 24.5204C13.6922 24.8942 14.2609 25.0935 14.8446 25.0935C14.9953 25.0935 15.1471 25.0802 15.2981 25.0532C17.2008 24.7132 18.9591 23.9784 20.5232 22.8691C20.814 22.6628 20.8806 22.2621 20.6693 21.975C20.4593 21.6895 20.0553 21.6265 19.7661 21.8315ZM15.3688 4.07899C15.3688 3.8948 15.5225 3.73993 15.7171 3.73993C15.9116 3.73993 16.0653 3.8948 16.0653 4.07899V6.96119H15.3688V4.07899ZM9.88764 4.07899C9.88764 3.8948 10.0414 3.73993 10.2359 3.73993C10.4305 3.73993 10.5842 3.8948 10.5842 4.07899V6.96119H9.88764V4.07899ZM8.2433 8.96964C8.2433 8.56971 8.57585 8.23932 8.99021 8.23932H16.9628C17.3771 8.23932 17.7097 8.56971 17.7097 8.96964C17.7097 9.36956 17.3771 9.69995 16.9628 9.69995H8.99021C8.57585 9.69995 8.2433 9.36956 8.2433 8.96964ZM9.6385 13.0778V10.9781H16.3145V13.0778C16.3145 14.88 14.8196 16.3512 12.9765 16.3512C11.1334 16.3512 9.6385 14.88 9.6385 13.0778ZM13.4244 17.9162H12.9995L12.9994 17.9162C12.9971 17.9161 12.9905 17.9156 12.9829 17.9156C12.9752 17.9156 12.9686 17.9161 12.9663 17.9162H12.5285V17.6081C12.676 17.6221 12.8254 17.6294 12.9765 17.6294C13.1276 17.6294 13.277 17.6221 13.4244 17.6081V17.9162Z" fill="black" stroke="black" stroke-width="0.3"/>
<path d="M22.0854 20.6277L21.984 20.7383L22.0854 20.6277ZM22.0854 20.6277C22.3482 20.8686 22.3628 21.2745 22.117 21.5329L22.1162 21.5338L22.1162 21.5338L22.1027 21.5474L22.1026 21.5476C21.9761 21.6731 21.8091 21.736 21.6428 21.736C21.4854 21.736 21.3267 21.6796 21.2017 21.5651L21.2016 21.5651C20.9387 21.3242 20.9242 20.9183 21.17 20.6599L21.1708 20.659L21.1708 20.659L21.1842 20.6454L21.1844 20.6452C21.4299 20.4016 21.8287 20.3926 22.0854 20.6277Z" fill="black" stroke="black" stroke-width="0.3"/>
<path d="M22.4789 19.3915L22.3586 19.3019C25.7544 14.7445 25.2623 8.53541 21.1869 4.53514C17.2436 0.664642 10.8213 0.13502 6.25221 3.30539C5.96099 3.50752 5.55758 3.44036 5.35047 3.15279L22.4789 19.3915ZM22.4789 19.3915L22.3586 19.3019C22.1455 19.5878 22.2099 19.9889 22.4995 20.1968C22.6147 20.2795 22.7486 20.3193 22.8808 20.3193C23.0789 20.3193 23.2761 20.2297 23.4037 20.0585C25.2025 17.6442 26.0708 14.663 25.8483 11.664C25.6236 8.63329 24.2927 5.77995 22.1017 3.62941C19.9476 1.51507 17.0712 0.221791 14.0028 -0.0135971C10.9721 -0.246185 7.95494 0.560876 5.50591 2.26022C5.21302 2.46343 5.14207 2.86347 5.35046 3.15277L22.4789 19.3915Z" fill="black" stroke="black" stroke-width="0.3"/>
<path d="M4.70529 3.68495L4.70526 3.68492C4.45125 3.4379 4.04228 3.43946 3.7904 3.68897L3.7904 3.68897L3.78992 3.68945L3.78203 3.69733C3.52888 3.94827 3.53092 4.35425 3.78637 4.6028L3.78641 4.60283C3.91297 4.7259 4.07789 4.78697 4.24177 4.78697C4.40748 4.78697 4.57426 4.72445 4.70121 4.59883L4.70121 4.59884L4.70174 4.5983L4.70964 4.59041C4.96279 4.33948 4.96074 3.9335 4.70529 3.68495Z" fill="black" stroke="black" stroke-width="0.3"/>
<path d="M13.071 11.1395L13.0711 11.1395C13.2935 10.8637 13.6999 10.8178 13.9798 11.0353C13.9798 11.0353 13.9798 11.0353 13.9798 11.0354L13.8878 11.1538C14.1035 11.3214 14.14 11.629 13.9692 11.8408L13.071 11.1395ZM13.071 11.1395L11.7759 12.7452L11.7759 12.7452C11.6208 12.9375 11.5911 13.2008 11.7003 13.4223C11.8092 13.6433 12.0363 13.782 12.2834 13.782H12.5548L12.0744 14.6145C11.8962 14.9233 12.008 15.314 12.3194 15.4871L12.3194 15.4871C12.42 15.543 12.5294 15.5696 12.6374 15.5696H12.6375C12.8617 15.5696 13.0815 15.4544 13.2015 15.2465L13.2015 15.2465L14.233 13.459C14.233 13.4589 14.233 13.4589 14.233 13.4589C14.3475 13.2605 14.3459 13.017 14.2289 12.8201C14.1121 12.6234 13.8987 12.5039 13.6694 12.5039H13.6271L14.086 11.9349M13.071 11.1395L14.086 11.9349M14.086 11.9349C14.086 11.9349 14.086 11.9349 14.086 11.9349L14.086 11.9349Z" fill="black" stroke="black" stroke-width="0.3"/>
</g>
<defs>
<clipPath id="clip0">
<rect width="25.5121" height="25.04" fill="white" transform="translate(0.220337)"/>
</clipPath>
</defs>
</svg>
