<svg width="26" height="26" viewBox="0 0 26 26" fill="none" xmlns="http://www.w3.org/2000/svg">
<g clip-path="url(#clip0)">
<path d="M24.9897 4.45065C24.9882 4.45065 24.9866 4.45046 24.985 4.45046H18.2084V3.71687C18.2084 2.50338 17.2025 1.51608 15.9661 1.51608H9.9867C8.75033 1.51608 7.74442 2.50338 7.74442 3.71687V4.45046H0.967763C0.551618 4.45046 0.220337 4.78517 0.220337 5.18406V21.3231C0.220337 22.5366 1.22625 23.5239 2.46261 23.5239H23.4902C24.7266 23.5239 25.7325 22.5366 25.7325 21.3231V5.19953C25.7325 5.19858 25.7325 5.19762 25.7325 5.19667C25.7039 4.71486 25.402 4.45333 24.9897 4.45065ZM9.23928 3.71687C9.23928 3.31244 9.57464 2.98327 9.9867 2.98327H15.9661C16.3782 2.98327 16.7135 3.31244 16.7135 3.71687V4.45046H9.23928V3.71687ZM23.948 5.91765L21.6269 12.7519C21.5251 13.0521 21.2401 13.2536 20.918 13.2536H16.7135V12.52C16.7135 12.1148 16.3789 11.7864 15.9661 11.7864H9.9867C9.57387 11.7864 9.23928 12.1148 9.23928 12.52V13.2536H5.03481C4.71268 13.2536 4.42772 13.0521 4.32592 12.7519L2.00482 5.91765H23.948ZM15.2187 13.2536V14.7208H10.7341V13.2536H15.2187ZM24.2376 21.3231C24.2376 21.7276 23.9023 22.0567 23.4902 22.0567H2.46261C2.05056 22.0567 1.71519 21.7276 1.71519 21.3231V9.70465L2.90776 13.216C3.21335 14.1161 4.06822 14.7208 5.03481 14.7208H9.23928V15.4544C9.23928 15.8596 9.57387 16.188 9.9867 16.188H15.9661C16.3789 16.188 16.7135 15.8596 16.7135 15.4544V14.7208H20.918C21.8846 14.7208 22.7395 14.1161 23.045 13.216L24.2376 9.70465V21.3231Z" fill="black"/>
</g>
<defs>
<clipPath id="clip0">
<rect width="25.5121" height="25.04" fill="white" transform="translate(0.220337)"/>
</clipPath>
</defs>
</svg>
