<svg width="26" height="23" viewBox="0 0 26 23" fill="none" xmlns="http://www.w3.org/2000/svg">
<path d="M17.7516 0H15.1413C15.1413 1.56362 13.9697 2.83529 12.5303 2.83529C11.091 2.83529 9.92011 1.56362 9.92011 0H7.30949L0 4.53638L2.08865 10.7739L5.22124 9.63965V22.6819H19.8402V9.63965L22.9728 10.7739L25.0607 4.53638L17.7516 0ZM22.338 9.34892L20.1698 8.56398L18.7955 8.06609V9.6397V21.5473H6.26517V9.6397V8.06609L4.89085 8.56403L2.72266 9.34898L1.28216 5.04682L7.58673 1.1342H9.02723C9.47656 2.77384 10.875 3.96949 12.5303 3.96949C14.1861 3.96949 15.5842 2.77384 16.0331 1.1342H17.4739L23.7789 5.04682L22.338 9.34892Z" fill="black"/>
</svg>
