<svg width="30" height="30" viewBox="0 0 30 30" fill="none" xmlns="http://www.w3.org/2000/svg">
<g clip-path="url(#clip0)">
<path d="M22.7314 -0.15H7.23218C6.10645 -0.15 5.18615 0.749358 5.18615 1.86101V27.5339C5.18615 28.6455 6.10652 29.5449 7.23225 29.5449H22.7314C23.8571 29.5449 24.7775 28.6455 24.7775 27.5339V1.86101C24.7774 0.749358 23.8571 -0.15 22.7314 -0.15ZM6.43629 4.82745H23.5273V23.9673H6.43629V4.82745ZM7.23218 1.08256H22.7314C23.1728 1.08256 23.5273 1.43451 23.5273 1.86101V3.90575H6.43629V1.86101C6.43629 1.4345 6.79082 1.08256 7.23218 1.08256ZM22.7314 28.3123H7.23218C6.7908 28.3123 6.43623 27.9603 6.43623 27.5338V24.889H23.5273V27.5338C23.5273 27.9603 23.1728 28.3123 22.7314 28.3123Z" fill="black" stroke="black" stroke-width="0.3"/>
<path d="M14.9818 25.0012C14.0436 25.0012 13.2759 25.7508 13.2759 26.6784C13.2759 27.6059 14.0437 28.3555 14.9818 28.3555C15.9199 28.3555 16.6878 27.6059 16.6878 26.6784C16.6878 25.7509 15.92 25.0012 14.9818 25.0012ZM14.9818 27.4338C14.5533 27.4338 14.2093 27.0921 14.2093 26.6784C14.2093 26.2645 14.5533 25.9229 14.9818 25.9229C15.4103 25.9229 15.7543 26.2645 15.7543 26.6784C15.7543 27.0921 15.4103 27.4338 14.9818 27.4338Z" fill="black" stroke="black" stroke-width="0.3"/>
<path d="M12.8282 3.11211H17.1354C17.3906 3.11211 17.6022 2.90837 17.6022 2.65126C17.6022 2.39416 17.3906 2.19041 17.1354 2.19041H12.8282C12.573 2.19041 12.3614 2.39416 12.3614 2.65126C12.3614 2.90836 12.573 3.11211 12.8282 3.11211Z" fill="black" stroke="black" stroke-width="0.3"/>
<path d="M12.0169 2.9784L12.0169 2.9784L12.0174 2.97783C12.1036 2.89232 12.1549 2.77483 12.1549 2.65126C12.1549 2.52769 12.1036 2.4102 12.0174 2.32469L12.0174 2.32469L12.0168 2.32407C11.9294 2.23834 11.8098 2.19041 11.6882 2.19041C11.5657 2.19041 11.447 2.23848 11.3594 2.32362L11.3594 2.32362L11.3589 2.32413C11.2713 2.41014 11.2215 2.52891 11.2215 2.65126C11.2215 2.77407 11.2716 2.89176 11.3583 2.97783L11.3583 2.97783L11.3589 2.9784C11.4464 3.06431 11.5661 3.11211 11.6882 3.11211C11.8098 3.11211 11.9295 3.0642 12.0169 2.9784Z" fill="black" stroke="black" stroke-width="0.3"/>
</g>
<defs>
<clipPath id="clip0">
<rect width="29.949" height="29.3948" fill="white" transform="translate(0.00726318)"/>
</clipPath>
</defs>
</svg>
