<svg width="28" height="28" viewBox="0 0 28 28" fill="none" xmlns="http://www.w3.org/2000/svg">
<g clip-path="url(#clip0)">
<path d="M20.4262 11.9674C20.2934 11.6376 19.9133 11.4761 19.5772 11.6063C19.2412 11.7367 19.0765 12.1098 19.2093 12.4396C19.5418 13.2649 19.7103 14.1371 19.7103 15.0322C19.7103 18.9202 16.4876 22.0835 12.5261 22.0835C8.56437 22.0835 5.34117 18.9202 5.34117 15.0322C5.34117 11.1441 8.56437 7.98089 12.5261 7.98089C13.4412 7.98089 14.3314 8.14734 15.172 8.47559C15.5076 8.60684 15.8881 8.44582 16.0217 8.1164C16.1553 7.78686 15.9915 7.41347 15.6558 7.28238C14.6606 6.89369 13.6076 6.69662 12.5262 6.69662C7.84294 6.69662 4.03275 10.4359 4.03275 15.0321C4.03275 19.6284 7.84278 23.3677 12.5261 23.3677C17.2089 23.3677 21.0188 19.6284 21.0188 15.0322C21.0188 13.9748 20.8193 12.9437 20.4262 11.9674Z" fill="black"/>
<path d="M24.4596 11.6741C24.3602 11.3331 23.9983 11.1361 23.6507 11.2334C23.3033 11.331 23.1023 11.6865 23.2017 12.0274C23.4853 13.0003 23.6291 14.0113 23.6291 15.0321C23.6291 21.0414 18.6483 25.9304 12.526 25.9304C6.40344 25.9304 1.42228 21.0414 1.42228 15.0321C1.42228 9.02269 6.40339 4.13381 12.526 4.13381C13.5684 4.13381 14.6002 4.27559 15.5926 4.55526C15.9399 4.65307 16.3022 4.45617 16.4019 4.11526C16.5016 3.77435 16.3009 3.41871 15.9536 3.3209C14.8439 3.00811 13.6906 2.84949 12.526 2.84949C5.6819 2.84954 0.1138 8.31461 0.1138 15.0321C0.1138 21.7496 5.6819 27.2147 12.526 27.2147C19.3698 27.2147 24.9375 21.7497 24.9375 15.0321C24.9375 13.8917 24.7767 12.7619 24.4596 11.6741Z" fill="black"/>
<path d="M17.0813 14.6401C17.0493 14.2868 16.7313 14.0274 16.3716 14.0575C16.0117 14.0891 15.7459 14.401 15.7781 14.7542C15.7863 14.8457 15.7906 14.9392 15.7906 15.0322C15.7906 16.799 14.3261 18.2363 12.526 18.2363C10.7255 18.2363 9.26061 16.7989 9.26061 15.0322C9.26072 13.2649 10.7255 11.8272 12.5261 11.8272C12.6266 11.8272 12.7251 11.8315 12.8189 11.84C13.179 11.8724 13.4972 11.6127 13.5304 11.2595C13.5636 10.9063 13.2988 10.5937 12.939 10.5611C12.8055 10.549 12.6666 10.5429 12.5261 10.5429C10.0041 10.5429 7.95224 12.5566 7.95224 15.0321C7.95224 17.507 10.0041 19.5205 12.5261 19.5205C15.0477 19.5205 17.0992 17.507 17.0992 15.0321C17.0991 14.9012 17.0932 14.7692 17.0813 14.6401Z" fill="black"/>
<path d="M27.7441 4.3197C27.5409 3.83797 27.0662 3.52667 26.5349 3.52667H24.2537V1.28772C24.2537 0.766229 23.9365 0.300395 23.4457 0.100889C22.9551 -0.0985637 22.3955 0.0107846 22.0199 0.37939L18.2083 4.12057C17.8377 4.48423 17.6337 4.96787 17.6337 5.4824V9.11609L12.3167 14.3347C12.0612 14.5855 12.0612 14.9921 12.3167 15.2429C12.4444 15.3682 12.6118 15.431 12.7792 15.431C12.9467 15.431 13.1141 15.3682 13.2418 15.2429L18.5589 10.0242H22.2611C22.7853 10.0242 23.2781 9.8239 23.6486 9.46029L27.4603 5.71901C27.836 5.35035 27.9473 4.80116 27.7441 4.3197ZM18.9422 5.48234C18.9422 5.31091 19.0102 5.14973 19.1336 5.02868L22.9452 1.28809V3.90288L18.9421 7.83192V5.48234H18.9422ZM22.7234 8.55212C22.6019 8.67141 22.4333 8.73993 22.2612 8.73993H19.8674L23.8705 4.811L26.5348 4.81132L22.7234 8.55212Z" fill="black"/>
</g>
<defs>
<clipPath id="clip0">
<rect width="27.7306" height="27.2174" fill="white" transform="translate(0.1138)"/>
</clipPath>
</defs>
</svg>
